<svg width="32" height="32" viewBox="0 0 32 32" fill="none" xmlns="http://www.w3.org/2000/svg">
<rect width="32" height="32" rx="4" fill="#5978CF" fill-opacity="0.2"/>
<mask id="mask0_1476_194" style="mask-type:alpha" maskUnits="userSpaceOnUse" x="8" y="8" width="16" height="16">
<rect x="8" y="8" width="16" height="16" fill="#D9D9D9"/>
</mask>
<g mask="url(#mask0_1476_194)">
<path d="M13.3332 19.9999H18.6665V18.6666H13.3332V19.9999ZM13.3332 17.3333H18.6665V15.9999H13.3332V17.3333ZM11.9998 22.6666C11.6332 22.6666 11.3194 22.5361 11.0585 22.2753C10.7972 22.0139 10.6665 21.6999 10.6665 21.3333V10.6666C10.6665 10.2999 10.7972 9.98592 11.0585 9.72459C11.3194 9.4637 11.6332 9.33325 11.9998 9.33325H17.3332L21.3332 13.3333V21.3333C21.3332 21.6999 21.2027 22.0139 20.9418 22.2753C20.6805 22.5361 20.3665 22.6666 19.9998 22.6666H11.9998ZM16.6665 13.9999V10.6666H11.9998V21.3333H19.9998V13.9999H16.6665Z" fill="#5978CF"/>
</g>
</svg>
