<svg width="32" height="32" viewBox="0 0 32 32" fill="none" xmlns="http://www.w3.org/2000/svg">
<rect width="32" height="32" rx="4" fill="#F79E8E" fill-opacity="0.2"/>
<mask id="mask0_1476_179" style="mask-type:alpha" maskUnits="userSpaceOnUse" x="8" y="8" width="16" height="16">
<rect x="8" y="8" width="16" height="16" fill="#D9D9D9"/>
</mask>
<g mask="url(#mask0_1476_179)">
<path d="M8.6665 16.0001C8.6665 14.9779 8.85828 14.0223 9.24184 13.1334C9.62495 12.2445 10.1498 11.4694 10.8165 10.8081C11.4832 10.1472 12.2609 9.62497 13.1498 9.24141C14.0387 8.8583 14.9887 8.66675 15.9998 8.66675C17.0109 8.66675 17.9609 8.8583 18.8498 9.24141C19.7387 9.62497 20.5165 10.1472 21.1832 10.8081C21.8498 11.4694 22.3749 12.2445 22.7585 13.1334C23.1416 14.0223 23.3332 14.9779 23.3332 16.0001H21.9998C21.9998 15.1667 21.8416 14.3861 21.5252 13.6581C21.2083 12.9305 20.7776 12.2945 20.2332 11.7501C19.6887 11.2056 19.0527 10.7779 18.3252 10.4667C17.5972 10.1556 16.8221 10.0001 15.9998 10.0001C15.1776 10.0001 14.4025 10.1556 13.6745 10.4667C12.9469 10.7779 12.3109 11.2056 11.7665 11.7501C11.2221 12.2945 10.7914 12.9305 10.4745 13.6581C10.1581 14.3861 9.99984 15.1667 9.99984 16.0001H8.6665ZM11.3332 16.0001C11.3332 14.689 11.7887 13.5834 12.6998 12.6834C13.6109 11.7834 14.7109 11.3334 15.9998 11.3334C17.2887 11.3334 18.3887 11.7834 19.2998 12.6834C20.2109 13.5834 20.6665 14.689 20.6665 16.0001H19.3332C19.3332 15.0779 19.0083 14.2916 18.3585 13.6414C17.7083 12.9916 16.9221 12.6667 15.9998 12.6667C15.0776 12.6667 14.2916 12.9916 13.6418 13.6414C12.9916 14.2916 12.6665 15.0779 12.6665 16.0001H11.3332ZM13.9998 22.9334L13.0665 22.0001L15.3332 19.7334V17.5334C15.0332 17.4001 14.7916 17.1945 14.6085 16.9167C14.4249 16.639 14.3332 16.3334 14.3332 16.0001C14.3332 15.5334 14.4943 15.139 14.8165 14.8167C15.1387 14.4945 15.5332 14.3334 15.9998 14.3334C16.4665 14.3334 16.8609 14.4945 17.1832 14.8167C17.5054 15.139 17.6665 15.5334 17.6665 16.0001C17.6665 16.3334 17.5749 16.639 17.3918 16.9167C17.2083 17.1945 16.9665 17.4001 16.6665 17.5334V19.7334L18.9332 22.0001L17.9998 22.9334L15.9998 20.9334L13.9998 22.9334Z" fill="#F69E8E"/>
</g>
</svg>
