<svg width="49" height="49" viewBox="0 0 49 49" fill="none" xmlns="http://www.w3.org/2000/svg">
<rect x="0.570312" y="0.5" width="48" height="48" rx="4" fill="#ED6BA6"/>
<mask id="mask0_1476_301" style="mask-type:alpha" maskUnits="userSpaceOnUse" x="12" y="12" width="25" height="25">
<rect x="12.5005" y="12.0723" width="24" height="24" fill="#D9D9D9"/>
</mask>
<g mask="url(#mask0_1476_301)">
<path d="M12.5005 30.0723V28.4973C12.5005 27.7806 12.8672 27.1973 13.6005 26.7473C14.3338 26.2973 15.3005 26.0723 16.5005 26.0723C16.7172 26.0723 16.9255 26.0763 17.1255 26.0843C17.3255 26.0929 17.5172 26.1139 17.7005 26.1473C17.4672 26.4973 17.2922 26.8639 17.1755 27.2473C17.0588 27.6306 17.0005 28.0306 17.0005 28.4473V30.0723H12.5005ZM18.5005 30.0723V28.4473C18.5005 27.9139 18.6465 27.4263 18.9385 26.9843C19.2298 26.5429 19.6422 26.1556 20.1755 25.8223C20.7088 25.4889 21.3465 25.2389 22.0885 25.0723C22.8298 24.9056 23.6338 24.8223 24.5005 24.8223C25.3838 24.8223 26.1965 24.9056 26.9385 25.0723C27.6798 25.2389 28.3172 25.4889 28.8505 25.8223C29.3838 26.1556 29.7922 26.5429 30.0755 26.9843C30.3588 27.4263 30.5005 27.9139 30.5005 28.4473V30.0723H18.5005ZM32.0005 30.0723V28.4473C32.0005 28.0139 31.9462 27.6056 31.8375 27.2223C31.7295 26.8389 31.5672 26.4806 31.3505 26.1473C31.5338 26.1139 31.7215 26.0929 31.9135 26.0843C32.1048 26.0763 32.3005 26.0723 32.5005 26.0723C33.7005 26.0723 34.6672 26.2929 35.4005 26.7343C36.1338 27.1763 36.5005 27.7639 36.5005 28.4973V30.0723H32.0005ZM16.5005 25.0723C15.9505 25.0723 15.4798 24.8763 15.0885 24.4843C14.6965 24.0929 14.5005 23.6223 14.5005 23.0723C14.5005 22.5056 14.6965 22.0306 15.0885 21.6473C15.4798 21.2639 15.9505 21.0723 16.5005 21.0723C17.0672 21.0723 17.5422 21.2639 17.9255 21.6473C18.3088 22.0306 18.5005 22.5056 18.5005 23.0723C18.5005 23.6223 18.3088 24.0929 17.9255 24.4843C17.5422 24.8763 17.0672 25.0723 16.5005 25.0723ZM32.5005 25.0723C31.9505 25.0723 31.4795 24.8763 31.0875 24.4843C30.6962 24.0929 30.5005 23.6223 30.5005 23.0723C30.5005 22.5056 30.6962 22.0306 31.0875 21.6473C31.4795 21.2639 31.9505 21.0723 32.5005 21.0723C33.0672 21.0723 33.5422 21.2639 33.9255 21.6473C34.3088 22.0306 34.5005 22.5056 34.5005 23.0723C34.5005 23.6223 34.3088 24.0929 33.9255 24.4843C33.5422 24.8763 33.0672 25.0723 32.5005 25.0723ZM24.5005 24.0723C23.6672 24.0723 22.9588 23.7806 22.3755 23.1973C21.7922 22.6139 21.5005 21.9056 21.5005 21.0723C21.5005 20.2223 21.7922 19.5096 22.3755 18.9343C22.9588 18.3596 23.6672 18.0723 24.5005 18.0723C25.3505 18.0723 26.0628 18.3596 26.6375 18.9343C27.2128 19.5096 27.5005 20.2223 27.5005 21.0723C27.5005 21.9056 27.2128 22.6139 26.6375 23.1973C26.0628 23.7806 25.3505 24.0723 24.5005 24.0723Z" fill="white"/>
</g>
</svg>
