<svg width="32" height="32" viewBox="0 0 32 32" fill="none" xmlns="http://www.w3.org/2000/svg">
<rect width="32" height="32" rx="4" fill="#3FA96A" fill-opacity="0.2"/>
<mask id="mask0_1476_172" style="mask-type:alpha" maskUnits="userSpaceOnUse" x="8" y="8" width="16" height="16">
<rect x="8" y="8" width="16" height="16" fill="#D9D9D9"/>
</mask>
<g mask="url(#mask0_1476_172)">
<path d="M17.3333 21.8166V20.4499C18.3333 20.161 19.1389 19.6055 19.75 18.7832C20.3611 17.961 20.6667 17.0277 20.6667 15.9832C20.6667 14.9388 20.3611 14.0055 19.75 13.1832C19.1389 12.361 18.3333 11.8055 17.3333 11.5166V10.1499C18.7111 10.461 19.8333 11.1581 20.7 12.2412C21.5667 13.3248 22 14.5721 22 15.9832C22 17.3943 21.5667 18.6415 20.7 19.7246C19.8333 20.8081 18.7111 21.5055 17.3333 21.8166ZM10 17.9999V13.9999H12.6667L16 10.6666V21.3332L12.6667 17.9999H10ZM17.3333 18.6666V13.2999C17.8556 13.5443 18.264 13.911 18.5587 14.3999C18.8529 14.8888 19 15.4221 19 15.9999C19 16.5666 18.8529 17.0915 18.5587 17.5746C18.264 18.0581 17.8556 18.4221 17.3333 18.6666Z" fill="#3FA96A"/>
</g>
</svg>
