<svg width="199" height="238" viewBox="0 0 199 238" fill="none" xmlns="http://www.w3.org/2000/svg">
<path fill-rule="evenodd" clip-rule="evenodd" d="M85.8815 9.56324C86.2515 2.80046 91.2545 -0.709345 98.2025 1.17399C101.075 1.94445 102.928 3.65649 103.762 6.31028C104.689 9.39204 104.41 12.4738 102.835 15.2987C101.167 18.2092 98.5735 20.007 94.8675 19.9214C91.2545 19.8357 88.7535 17.8668 87.4565 14.8707C86.8515 13.6284 86.5385 12.2961 86.2365 11.0044C86.1215 10.5158 86.0085 10.0331 85.8815 9.56324ZM15.9348 177.006C15.9348 176.835 15.9348 176.321 16.0274 175.893C16.5833 174.437 16.7686 172.897 16.7686 171.27C16.7686 169.216 18.7141 167.675 21.0302 167.589C22.0493 167.589 23.161 167.761 23.9948 168.103C26.9595 169.387 29.7388 171.013 31.8696 173.325C36.2239 177.862 34.2784 185.309 28.1638 187.45C24.9213 188.648 21.4934 187.792 19.0847 185.309C17.3244 183.426 15.9348 180.002 15.9348 177.006ZM53.6411 221.52C52.1587 222.89 51.6029 224.602 51.6029 225.715C51.6029 230.337 53.919 234.189 57.2542 235.987C61.4235 238.213 66.1485 237.015 68.4645 233.077C71.7995 227.427 67.9085 219.636 61.1455 218.267C58.5512 217.753 56.3277 218.267 54.6601 220.407C54.3822 220.835 54.0116 221.178 53.6411 221.52ZM187.882 159.371C187.79 159.771 187.717 160.18 187.645 160.588C187.501 161.407 187.357 162.225 187.048 162.967C185.01 168.017 178.618 169.301 174.449 165.449C172.318 163.565 171.484 161.084 171.115 158.429C171.021 157.659 170.837 156.803 170.559 156.032C169.262 152.951 170.559 150.297 173.986 149.269C178.247 147.9 183.898 149.869 186.122 153.464C187.234 155.262 187.79 157.231 187.882 159.371ZM0.1087 50.5564C0.0688998 50.7524 0.0329 50.9292 0 51.0814C0.0926 54.6768 0.741099 57.245 2.6867 59.2994C4.7248 61.5251 7.4115 62.5524 10.5614 62.0387C13.7113 61.5251 15.7495 59.6418 16.7686 56.8169C18.6215 51.7663 15.6569 45.6883 9.8203 44.4899C9.635 44.4328 9.4497 44.3852 9.2644 44.3377C8.8938 44.2425 8.5232 44.1475 8.1527 43.9763C5.5586 42.949 2.3161 43.9763 1.0191 47.058C0.5621 48.3248 0.2929 49.6495 0.1087 50.5564ZM158.792 197.893C158.792 201.403 156.846 204.142 153.697 205.084C150.825 206.025 147.86 205.17 145.729 202.858C143.32 200.119 142.301 196.951 142.395 193.527C142.486 191.045 143.969 188.99 145.544 187.107C146.563 185.909 148.138 185.566 149.805 185.823C150.732 185.994 151.659 186.336 152.4 186.85C155.736 188.905 158.792 194.127 158.792 197.893ZM0.741199 112.117V112.974C0.833799 116.826 2.1308 120.25 5.8366 122.475C8.338 124.017 11.0247 124.358 13.804 123.075C16.4907 121.791 17.6951 119.565 17.7877 116.912C17.973 112.374 15.4716 109.036 11.3953 106.638C11.0247 106.382 10.6541 106.211 10.1909 106.125C5.466 104.755 1.0191 107.58 0.741199 112.117ZM124.236 200.975C124.38 201.274 124.495 201.587 124.611 201.897C124.792 202.385 124.971 202.867 125.255 203.286C126.552 205.255 127.571 207.224 127.663 209.621C127.757 212.189 126.738 214.158 124.236 215.356C121.735 216.555 119.326 216.126 117.195 214.586C114.694 212.874 113.49 210.392 112.934 207.566C112.687 206.311 112.522 205.055 112.357 203.799V203.799C112.275 203.171 112.193 202.544 112.1 201.916C111.915 200.718 112.193 199.434 113.212 198.749L113.365 198.646C114.987 197.563 116.697 196.422 118.492 195.924C121.92 194.982 125.07 197.722 124.236 200.975ZM122.568 143.535C120.067 146.102 118.585 149.098 118.678 152.009C118.585 155.005 119.048 156.889 119.975 158.429C121.457 160.741 124.051 161.853 126.738 161.511C130.073 161.084 133.13 158.515 133.779 155.433C134.52 151.924 133.594 148.757 131.277 145.931C131 145.589 130.745 145.27 130.492 144.949L130.49 144.946L130.488 144.944C130.234 144.624 129.979 144.304 129.702 143.962C127.85 141.48 124.791 141.309 122.568 143.535ZM61.7015 187.707C67.7225 186.764 72.6335 193.27 71.1505 198.663C69.9465 203.029 65.2215 205.17 60.7746 203.372C56.3277 201.574 53.4557 196.096 54.8454 191.729C55.4939 189.333 57.7174 187.021 61.7015 187.707ZM186.678 113.145C185.104 115.456 184.27 118.024 184.363 120.763C184.363 122.818 184.826 124.701 185.938 126.413C187.605 128.982 190.292 130.265 193.163 129.837C195.943 129.495 198.258 127.441 198.723 124.444C199.555 119.736 197.702 115.627 194.367 112.203C192.051 109.806 188.531 110.405 186.678 113.145ZM43.6401 142.744C43.8214 143.232 44.0007 143.715 44.2839 144.133C45.6736 146.359 46.3221 148.671 45.8589 151.238C45.4883 153.464 44.1913 155.176 41.7825 155.862C39.2811 156.632 37.1503 155.862 35.3901 154.149C33.8151 152.522 32.9813 150.554 32.4254 148.5C32.1475 147.472 31.7769 146.445 31.2211 145.503C30.0167 143.106 30.6652 140.88 32.9813 139.425C33.4445 139.168 33.8846 138.869 34.3246 138.569C34.7647 138.27 35.2048 137.97 35.668 137.713C37.4282 136.685 39.2811 136.515 41.134 137.456C42.8943 138.398 43.6354 139.854 43.2648 141.822C43.4088 142.122 43.5248 142.434 43.6401 142.744ZM147.305 18.8942C149.806 17.6956 150.732 15.6412 150.824 13.4155C150.917 9.64889 148.139 5.36861 144.525 2.80047C140.82 0.146765 136.188 1.8588 135.632 6.22463C135.354 8.19361 135.447 10.3337 135.816 12.3026C136.279 14.7851 137.67 16.9253 139.986 18.3805C142.301 19.8358 144.803 20.1782 147.305 18.8942ZM84.3065 159.542C84.3065 158.886 84.2965 158.23 84.2855 157.574C84.2655 156.261 84.2445 154.948 84.3065 153.636C84.4915 150.982 87.1785 149.269 90.0505 150.126C91.2545 150.469 92.3665 151.067 93.2925 151.838C95.4235 153.636 96.9055 155.776 98.0175 158.258C98.8515 160.141 99.0365 162.11 98.2025 164.079C97.2765 166.562 95.4235 168.103 92.6445 168.53C89.7725 168.959 87.5485 167.932 85.8815 165.791C84.4915 163.908 84.0285 161.768 84.3065 159.542ZM172.688 58.7002C176.116 57.4162 178.34 54.1632 178.34 50.5677C178.34 47.058 176.302 44.1475 173.244 43.2058C170.002 42.0929 166.297 43.2058 164.074 45.7739C161.572 48.6845 161.665 54.0776 164.258 56.9025C166.296 59.1282 169.631 59.8131 172.688 58.7002ZM82.7315 81.5566C82.7315 83.0118 82.3605 84.5529 81.4345 85.8372C78.8405 89.6031 73.5595 89.9459 70.5025 86.5218C68.2785 84.0392 67.6305 81.0429 67.7225 77.8757C67.7225 77.1698 67.8795 76.463 68.0355 75.7571C68.0875 75.5215 68.1395 75.2859 68.1865 75.0503C69.0195 71.4553 72.4475 70.0001 76.0605 71.6262C79.7665 73.1674 82.7315 77.6188 82.7315 81.5566ZM119.163 49.2878C119.247 49.0301 119.332 48.7716 119.419 48.5133C119.141 46.1164 118.028 44.233 115.898 42.6065C115.761 42.4982 115.616 42.3897 115.469 42.2797C114.919 41.8684 114.338 41.4347 114.046 40.8945C112.471 38.3264 108.116 37.8128 105.43 40.9801C102.558 44.4042 102.465 49.7117 105.337 53.2215C108.857 57.5017 114.972 57.1593 117.844 52.5367C118.445 51.495 118.802 50.3965 119.163 49.2878ZM169.354 92.6853C169.262 95.7666 167.872 98.506 164.814 100.304C160.738 102.787 155.643 101.245 154.068 97.0508C152.122 92.0007 154.16 87.0355 160.645 85.1516C163.146 84.382 165.463 85.1516 167.223 87.0355C168.706 88.5766 169.262 90.4596 169.354 92.6853ZM124.993 101.715C125.13 101.236 125.266 100.758 125.441 100.304C125.256 95.6816 119.789 90.4596 114.878 90.4596C111.821 90.3736 109.412 92.4284 109.598 95.082C109.69 96.709 109.877 98.3351 110.247 99.9612C110.803 102.53 112.1 104.755 114.508 106.211C117.937 108.35 122.29 107.409 124.143 103.985C124.546 103.294 124.771 102.503 124.993 101.715ZM74.7635 35.8438C74.7635 38.7543 73.1895 41.1513 70.5945 42.0929C68.0005 43.0346 65.0365 42.3498 62.9985 40.2096C60.2188 37.2135 59.385 33.7037 60.2188 29.8515C60.5894 28.3962 61.4235 27.1978 62.6275 26.2561C65.2215 24.4584 68.5565 25.0577 70.3175 27.5402C70.8725 28.3105 71.5215 29.0809 72.1695 29.8513C73.9305 31.7346 74.7635 33.6181 74.7635 35.8438ZM28.6 69.395C28.5059 69.7322 28.4241 70.026 28.3491 70.257C28.5344 74.0238 29.3682 76.5914 31.7769 78.4744C35.3901 81.3857 40.4855 80.2723 42.2457 76.2496C43.3575 73.5951 42.9869 71.1125 41.134 68.8868C40.3929 67.9453 39.837 67.0898 39.5591 65.9764C38.9105 63.5797 36.3165 62.2956 33.6298 62.9804C31.8696 63.4085 30.4799 64.5213 29.7388 66.0624C29.1977 67.2496 28.8542 68.4821 28.6 69.395ZM85.4185 114.6C85.4185 116.226 84.9545 117.853 83.7505 119.394C81.1565 122.475 76.5245 122.732 73.3745 119.907C70.4095 117.253 69.5755 112.46 71.4285 109.036C72.6335 106.81 74.7635 105.783 77.4505 106.125C77.5435 106.125 77.6125 106.147 77.6825 106.168C77.7515 106.189 77.8215 106.211 77.9135 106.211C83.0095 106.895 85.4185 109.549 85.4185 114.6ZM141.467 123.846V129.239C141.467 130.865 142.023 133.005 143.876 134.717C146.934 137.542 151.751 136.685 153.419 133.09C155.271 129.153 151.936 121.705 147.675 120.079C144.525 118.88 141.467 120.763 141.467 123.846Z" fill="#AAC4E6"/>
</svg>
