<svg width="61" height="59" viewBox="0 0 61 59" fill="none" xmlns="http://www.w3.org/2000/svg">
<path fill-rule="evenodd" clip-rule="evenodd" d="M47.5891 6.18876C47.5038 6.6099 47.4635 6.80938 47.4077 7.08262L47.1336 7.2629C46.9923 7.82138 46.8623 8.36218 46.718 8.89876C46.5964 9.35163 46.432 9.79496 46.3353 10.2523C46.2277 10.7618 46.0618 11.2542 45.9767 11.7752C45.9004 12.2455 45.9542 12.7712 45.7086 13.1937C45.422 13.6842 45.5973 14.2327 45.4144 14.7338C45.2453 15.1965 45.1628 15.6906 45.0428 16.1697C45.0536 16.172 45.1268 16.1868 45.2177 16.2058C45.0472 17.68 44.8393 19.1569 45.1157 20.7247C45.0915 20.758 45.0105 20.8708 44.9108 21.0093C45.0111 21.042 45.1027 21.0719 45.1972 21.1025C45.28 21.9563 45.4178 22.8206 45.4745 23.6733C45.5439 24.7232 45.8582 25.7442 45.7679 26.8165C45.7226 27.355 45.8516 27.9414 46.0443 28.4522C46.1628 28.765 45.9509 28.8271 45.875 29.0223C45.9901 29.0759 46.1051 29.1301 46.2595 29.2021C46.325 29.8789 46.3927 30.5756 46.4623 31.2934C46.2862 31.2654 46.1797 31.2482 46.0115 31.2216C45.8875 31.5372 45.5093 31.774 45.7967 32.4205C45.5086 32.2004 45.3304 32.0643 45.1111 31.8968C45.0388 32.331 45.0102 32.5016 44.9742 32.7167C45.1088 32.7803 45.235 32.8396 45.3738 32.905C45.387 33.106 45.4029 33.3365 45.4176 33.5588C45.3325 33.5974 45.2428 33.6698 45.2057 33.6496C44.9327 33.4961 44.6697 33.324 44.4056 33.1591C43.9049 33.3711 44.2334 33.7821 44.169 34.0957C44.095 34.0805 44.0213 34.0649 43.9188 34.0441C43.8447 34.1732 43.7654 34.3106 43.6821 34.4552C43.3732 34.3316 43.082 34.2153 42.6688 34.0499C42.0961 33.3076 41.5047 32.3988 40.7614 31.6383C40.3779 31.2451 40.1212 30.699 39.6941 30.4395C39.1641 30.1169 39.0678 29.5086 38.636 29.2066C38.1602 28.8731 37.9676 28.324 37.5618 27.998C37.1162 27.6402 36.9015 27.1066 36.497 26.7798C35.534 26.0018 34.8761 24.9031 33.7907 24.2661C33.6287 23.7712 32.9867 23.5927 32.9625 23.0072C32.4021 22.7532 32.006 22.3018 31.584 21.8774C30.9884 21.2781 30.2078 20.8844 29.7173 20.1585C29.5784 19.9534 29.2818 19.855 28.9166 19.6158C29.2426 20.669 29.5221 21.573 29.8641 22.6787C29.8334 22.7743 29.7304 23.0919 29.6264 23.4122C29.887 23.6349 30.0703 23.7915 30.2657 23.9589C30.4968 25.0245 31.1461 26.0734 30.9305 27.2837C31.4717 27.3392 31.4728 27.9264 31.7717 28.1691C31.9206 29.5129 32.5745 30.6252 33.0403 31.9594C33.0348 31.9803 32.9886 32.1619 32.9446 32.3346C33.0571 32.8441 33.5505 33.1373 33.56 33.7261C33.5664 34.1532 33.826 34.6374 34.1105 34.9832C34.4576 35.4053 34.6249 35.9264 34.6712 36.3714C34.7288 36.924 35.1193 37.2055 35.2851 37.6994C35.2538 37.8236 35.2079 38.0055 35.1442 38.2576C35.8464 39.1358 36.2864 40.2024 36.8565 41.2319C36.7964 41.4034 36.7359 41.5745 36.6582 41.7957L37.2948 42.7632C37.0753 42.7356 36.9739 42.7224 36.7627 42.6952C37.1279 43.1486 37.0526 43.5948 36.8616 44.0898C36.7407 44.0975 36.6013 44.1064 36.4831 44.1143C36.3079 44.9098 36.1279 45.7268 35.9639 46.4722C35.6662 46.5654 35.4403 46.6358 35.1487 46.7269C35.071 46.6804 34.9252 46.5928 34.7796 46.5057L34.5585 46.6512C34.5902 46.7717 34.625 46.9044 34.6781 47.1065C34.148 47.5142 33.5617 47.4269 32.9763 47.2757C32.6134 46.8862 32.6134 46.8862 31.8702 46.9472C32.1183 47.0756 32.2122 47.1243 32.3584 47.2003C32.2876 47.2781 32.2077 47.3668 32.0959 47.4894C31.925 47.2989 31.7848 47.1423 31.6107 46.9485C31.566 47.084 31.5358 47.1737 31.5136 47.2404C30.8108 47.209 30.1064 47.1776 29.3171 47.1421L29.0407 46.722C28.992 46.8883 28.9632 46.9856 28.9247 47.1176C28.8149 47.0322 28.7116 46.9513 28.5751 46.8448L28.1754 47.1078C27.9724 47.0659 27.8253 47.0352 27.6773 47.0047C27.7132 46.687 27.5278 46.3321 27.8374 46.0565C27.2186 46.0317 27.2918 46.5394 27.1512 46.9858C27.012 46.8097 26.9034 46.6725 26.7897 46.5281C26.2474 46.5488 25.7078 46.4559 25.1645 46.7912C24.711 47.0712 24.2011 46.7739 23.729 46.4504C23.6791 46.5863 23.649 46.6686 23.5894 46.8328C23.4451 46.6858 23.3174 46.5551 23.1548 46.3885C23.1141 46.424 23.0542 46.4769 22.8755 46.6331C22.5118 46.62 21.9867 46.503 21.5089 46.6066C20.8286 46.7542 20.2571 46.2804 19.5629 46.4431C18.9541 46.5858 18.2965 46.5365 17.6391 46.433C16.7425 46.2921 15.8128 46.3643 14.8311 46.3439L15.1716 46.8615C15.2894 46.8445 15.4589 46.8203 15.6903 46.7876C15.6945 46.9855 15.6979 47.1588 15.7028 47.3659C16.0007 47.5134 16.3027 47.7019 16.6311 47.8137C16.906 47.9074 17.1447 48.2334 17.4931 48.0026C17.6341 48.422 18.0258 48.44 18.3689 48.5147C18.347 48.6194 18.3319 48.6928 18.32 48.7501C19.5759 49.0275 20.6722 49.644 21.7319 50.345C22.1383 50.4188 22.5444 50.4926 22.9467 50.5661L23.1526 50.8789C23.7246 51.0996 24.2221 51.2913 24.7884 51.5092C24.6684 51.7443 24.5834 51.9113 24.4737 52.1268C24.8055 52.2957 25.1176 52.4543 25.4067 52.6013C25.6124 52.3796 25.7903 52.1888 25.9661 51.9993C26.7108 52.315 27.3941 52.6046 28.268 52.9752C27.8474 53.1324 27.6261 53.0063 27.3734 52.9817C27.3897 53.5045 27.8482 53.3228 28.0942 53.4525C28.0882 53.5888 28.0811 53.7244 28.067 54.0148C28.2735 53.9444 28.4668 53.8787 28.6601 53.813C28.645 53.8918 28.6299 53.9707 28.6152 54.0493C28.6893 53.8988 28.7634 53.7485 28.8454 53.583C29.1348 53.7515 29.3737 53.8909 29.6091 54.0285C29.5894 54.1713 29.5746 54.2798 29.5582 54.3966C29.656 54.421 29.7598 54.4475 29.894 54.4812C30.119 54.2642 30.3589 54.034 30.5769 53.8236C31.5229 54.2886 32.4226 54.7314 33.3226 55.174C33.3135 55.2167 33.3049 55.2595 33.296 55.3016C33.1884 55.297 33.081 55.2928 32.815 55.2819C33.216 55.7008 33.5469 56.0463 33.9315 56.4477C33.6399 56.7928 33.3702 57.1115 32.9784 57.5741C32.9765 57.5946 32.9577 57.8177 32.9337 58.1007C31.6942 57.5567 30.4323 57.3175 29.2094 56.9956C27.517 56.5497 25.9542 55.7984 24.309 55.2511C22.5961 54.6814 20.9579 53.8841 19.2849 53.1913C18.3326 52.7966 17.3673 52.4311 16.4227 52.0179C15.0968 51.4375 13.759 50.8758 12.4804 50.2037C11.9171 49.9075 11.2788 49.8326 10.7456 49.4154C10.2878 49.0572 9.64403 48.9348 9.08007 48.7144C7.64001 48.1511 6.21815 47.5461 4.71541 47.146C3.73671 46.886 2.79158 46.4969 1.69104 46.1173L0.949545 44.9903C1.21719 44.8017 1.4418 44.5018 1.93871 44.6052C1.80315 44.3389 1.67624 44.0902 1.55636 43.8552C2.03253 42.8955 2.81386 42.2699 3.86373 41.7518C3.98531 41.7987 4.22853 41.8925 4.67438 42.0638C4.72563 42.0995 4.98035 42.2764 5.28604 42.4893C5.51176 42.1881 5.68131 41.962 5.84103 41.7488C6.34463 41.7765 6.85143 41.7698 7.34647 41.8418C7.76841 41.9028 8.25745 41.5587 8.58069 42.1925C8.62885 41.962 8.64373 41.8881 8.67237 41.7508C9.12832 42.0776 9.74582 41.5141 10.148 42.1074C10.3263 42.0182 10.4864 41.9382 10.6758 41.8433C10.745 41.9093 10.821 41.9819 10.9051 42.0623C12.3077 41.7509 13.7239 41.9744 15.1661 42.0985C15.2353 42.053 15.328 41.9414 15.4245 41.9374C15.8144 41.9218 16.3061 41.7942 16.5734 41.9782C17.0075 42.2778 17.6035 41.8544 17.9178 42.4211C18.1548 42.284 18.3746 42.1568 18.61 42.0202C18.7174 42.0998 18.8289 42.1826 18.9653 42.2838C19.0796 42.217 19.2048 42.1436 19.3985 42.031C19.7582 42.1151 20.1766 42.2128 20.6715 42.3284C20.5256 42.5677 20.4393 42.7087 20.3195 42.9041C20.6608 42.9066 20.9686 42.9088 21.2768 42.9109C21.3325 42.7904 21.3874 42.6705 21.4748 42.4786C21.6633 42.5698 21.8279 42.6941 22.0077 42.7225C22.1649 42.7475 22.3394 42.6645 22.5036 42.6298C22.5472 42.5223 22.5999 42.392 22.6897 42.1707C22.8852 42.2666 23.0522 42.3492 23.3335 42.4874C23.3553 42.5568 23.4276 42.7849 23.5096 43.0444L23.8919 42.7928C24.275 43.0014 24.541 43.1502 25.0139 42.9655C25.8177 42.6513 26.7255 42.6852 27.5915 42.596C27.7241 42.5821 27.8751 42.7474 28.0158 42.8294C28.0508 42.7147 28.08 42.6195 28.0769 42.6291C28.5598 42.6902 29.019 42.6836 29.4323 42.8182C29.8527 42.9546 30.2282 43.2306 30.7229 43.5002C30.9844 43.4486 30.9078 43.2144 30.4671 42.7715C30.949 42.9275 31.1108 42.9797 31.3069 43.0435C31.3257 43.2008 31.3449 43.3627 31.3815 43.6708C31.5759 43.3971 31.7064 43.2135 31.8536 43.0061C31.9456 43.012 32.0521 43.0179 32.2255 43.0282C32.2498 42.8857 32.3594 42.6536 32.2909 42.5728C31.9554 42.1776 31.9481 41.7179 31.9099 41.2914C31.2742 40.7199 31.2571 39.8636 30.9072 39.175C30.5213 38.4174 30.1682 37.6274 29.9385 36.8126C29.7179 36.0326 29.5138 35.2289 29.1429 34.5339C28.7487 33.7961 28.5806 32.9949 28.2468 32.2458C27.9065 31.482 27.6724 30.6627 27.471 29.8478C27.2775 29.0623 26.9017 28.3471 26.7177 27.5506C26.5306 26.7409 26.2742 25.9186 25.952 25.1523C25.6327 24.3927 25.5504 23.59 25.2817 22.8288C25.0138 22.0704 24.7817 21.2979 24.573 20.521C24.3562 19.7146 24.193 18.8938 23.9938 18.0823C23.8025 17.3024 23.5951 16.526 23.3778 15.6824C23.4347 15.4065 23.5096 15.0418 23.5839 14.6821C23.6794 14.6961 23.7881 14.7114 23.8859 14.7259C24.3088 14.4894 24.0767 14.1447 24.0587 13.8868C24.4151 13.5452 24.7485 13.2252 25.109 12.8795C25.1647 12.8889 25.2744 12.907 25.3758 12.9241C25.5793 12.1586 26.2208 12.2174 26.7738 12.2538C27.3323 12.291 27.8812 12.4653 28.4727 12.5872C29.198 13.4125 30.4541 13.7166 30.8575 14.9371C31.0159 14.8741 31.1136 14.8351 31.2773 14.7695C31.7359 15.267 32.2207 15.7935 32.7694 16.3894C32.7955 16.3816 32.924 16.3432 33.0192 16.3148C33.5092 16.743 33.9958 17.1472 34.4552 17.5803C34.6357 17.7506 34.869 17.9793 34.8801 18.1922C34.9088 18.7332 35.125 19.0579 35.6077 19.2981C35.8295 19.4086 35.9601 19.7004 36.2559 19.8177L35.7689 19.0775C35.9177 19.0564 36.0164 19.0262 36.0256 19.044C36.3057 19.5677 36.7934 19.8998 37.2334 20.246C37.6041 20.5375 37.9466 20.9142 37.9727 21.2862C38.0065 21.7687 38.3555 21.9743 38.5047 22.5411C38.6069 22.2736 38.6367 22.196 38.6667 22.1172C39.3943 22.4402 39.648 22.6079 39.7202 23.1902C39.7777 23.656 40.1056 23.8598 40.4007 24.1357C40.2643 23.8664 40.1278 23.5973 39.8931 23.1343C40.4245 23.6594 40.7976 24.0282 41.3238 24.5487C41.0152 22.6143 41.2178 20.8786 41.2292 19.1423C41.2407 17.3736 41.3857 16.4591 41.8506 15.0684C41.9347 14.8157 41.857 14.5124 41.9232 14.2497C42.0386 13.795 42.2468 13.3616 42.3433 12.9039C42.4317 12.4837 42.36 12.0257 42.4712 11.6145C42.7663 10.5264 43.2411 9.49211 43.4652 8.37831C43.4872 8.26919 43.6846 8.19485 43.8138 8.09437C43.8087 7.90646 43.7382 7.6756 43.8081 7.50071C44.1495 6.64599 44.4736 5.77679 44.912 4.9713C45.2603 4.33107 45.5563 3.66342 45.9625 3.0396C46.3637 2.42327 46.9181 2.00295 47.3724 1.477C47.8425 0.933088 48.568 0.682368 49.3561 0.565994C49.2201 1.60947 50.3598 1.7585 50.7618 2.45689C50.5783 2.12444 50.3945 1.79166 50.2108 1.45888C50.2631 1.42902 50.3158 1.39925 50.368 1.36931L50.779 1.99395C50.9033 2.18283 51.0245 2.37384 51.1523 2.55992C51.2963 2.76818 51.3869 3.0432 51.7167 3.02901C51.5155 3.32899 51.9917 3.34141 51.9458 3.5406C51.8643 3.89829 52.3987 3.69094 52.3558 4.0374C52.3325 4.22869 52.4341 4.45094 52.526 4.63598C52.6397 4.86449 52.8019 5.06869 52.93 5.26351C52.8091 5.42195 52.7251 5.53227 52.592 5.70666C52.7961 5.65457 52.9252 5.62171 53.1049 5.57541C53.1794 5.6697 53.2674 5.78084 53.411 5.96297C53.3494 6.26338 53.2762 6.6194 53.2104 6.93931C53.3294 7.10054 53.4155 7.21692 53.494 7.32351C53.6596 7.28441 53.7945 7.25267 53.981 7.2084C53.8718 7.38977 53.7881 7.5286 53.7047 7.66777L53.8408 7.8747C53.9994 7.85212 54.1692 7.82825 54.3562 7.80135C54.537 8.46036 54.6172 9.1325 55.0216 9.71622C55.2044 9.98065 55.1881 10.383 55.27 10.7601C55.2634 10.7575 55.3268 10.7792 55.4236 10.8127C55.6092 11.3714 55.8016 11.9503 56.0385 12.6636C55.7374 12.5686 55.5365 12.505 55.3494 12.4461C55.5053 12.7749 55.6596 12.9589 55.982 13.1906C55.9798 13.2263 55.9813 13.2625 55.9754 13.2981C55.9622 13.3722 55.9456 13.4456 55.9275 13.5319C56.0012 13.5438 56.0748 13.554 56.1476 13.568C56.1829 13.575 56.2171 13.5892 56.2543 13.6014C56.3368 13.9031 56.4198 14.2071 56.5288 14.6064L55.699 15.1523C55.7062 15.2085 55.7138 15.2645 55.7216 15.3208C55.8913 15.3202 56.0611 15.3191 56.3026 15.3184C56.3462 15.2362 56.4229 15.0904 56.5695 14.8136C56.7487 15.3214 56.8953 15.7356 57.0372 16.138C56.9396 16.2385 56.8661 16.3136 56.7897 16.392C57.4254 16.6557 57.3946 17.1771 57.3535 17.7138C57.3407 17.885 57.3643 18.0671 57.4116 18.2324C57.5172 18.6032 57.6483 18.9667 57.7943 19.408C57.7853 19.4185 57.7177 19.4981 57.5784 19.6631C57.7054 19.8305 57.8577 20.0312 58.1003 20.3501C58.1099 20.2669 58.0697 20.3707 58.0916 20.4583C58.269 21.1687 58.5304 21.857 58.6491 22.5831C58.6604 22.6515 58.7254 22.7088 58.7493 22.7769C58.9043 23.2204 58.5271 23.7134 58.8594 24.1349C59.1528 24.507 59.0028 24.9587 59.1158 25.3633C59.2375 25.7985 59.3185 26.2449 59.4096 26.6877C59.4379 26.8243 59.4154 26.9749 59.4635 27.1015C59.5153 27.2389 59.6219 27.3557 59.7423 27.5387C59.6839 27.7031 59.6095 27.9142 59.554 28.0702L59.9751 28.7104C59.8271 29.3497 59.6669 29.994 60.124 30.5907C60.1647 30.6437 60.207 30.7305 60.1919 30.786C59.9361 31.7257 60.4941 32.5739 60.4827 33.5016C60.4718 34.3962 60.7583 35.2906 60.8245 36.1915C60.9125 37.385 60.9148 38.5843 60.9474 39.7816C60.9507 39.8915 60.9301 40.0161 60.8787 40.1114C60.3997 41.0027 59.9109 41.889 59.4712 42.6934C58.948 42.9086 58.5179 43.0855 57.965 43.3129C57.7723 43.2226 57.4557 43.0738 57.1481 42.9296C57.0109 42.296 56.8474 41.6887 56.7554 41.0704C56.663 40.449 56.5956 39.8161 56.5991 39.1891C56.6057 37.8163 56.3049 36.4772 56.2124 35.1181C56.1576 34.3137 55.8624 33.5243 56.0498 32.7044C55.6131 31.4022 55.5516 30.0365 55.3321 28.697C55.2372 28.1179 55.2283 27.5179 55.0376 26.9462C54.8612 26.4197 54.768 25.8658 54.6359 25.3245C54.2244 23.6319 53.8206 21.938 53.3964 20.2488C53.1756 19.3692 52.935 18.4933 52.6735 17.6247C52.4098 16.7499 52.0495 15.8879 51.8301 15.0203C51.4456 13.4997 50.6615 12.1505 50.2243 10.6586C49.9937 9.87077 49.4866 9.15726 49.0585 8.43733C48.642 7.73558 48.1676 7.06803 47.5891 6.18876Z" fill="#004DB3"/>
</svg>
